<?xml version="1.0" encoding="UTF-8" standalone="no" ?>
<!DOCTYPE svg PUBLIC "-//W3C//DTD SVG 1.1//EN" "http://www.w3.org/Graphics/SVG/1.1/DTD/svg11.dtd">
<svg xmlns="http://www.w3.org/2000/svg" xmlns:xlink="http://www.w3.org/1999/xlink" version="1.1" width="400" height="400" viewBox="0 0 400 400" xml:space="preserve">
<desc>Created with Fabric.js 3.6.2</desc>
<defs>
</defs>
<g transform="matrix(0.39 0 0 0.39 200 200)" id="Layer_1"  >
<path style="stroke: none; stroke-width: 1; stroke-dasharray: none; stroke-linecap: butt; stroke-dashoffset: 0; stroke-linejoin: miter; stroke-miterlimit: 4; fill: rgb(255,255,255); fill-rule: nonzero; opacity: 1;"  transform=" translate(-256, -256)" d="M 256 32 c -74 0 -134.2 58.7 -134.2 132.7 c 0 16.4 3.5 34.3 9.8 50.4 l -0.1 0 l 0.6 1.2 l 0 0 c 0.5 1.1 1 2.2 1.5 3.3 L 256 480 l 121.8 -259.1 l 0.6 -1.2 c 0.5 -1.1 1.1 -2.2 1.6 -3.4 l 0.4 -1.1 c 6.5 -16.1 9.8 -33.1 9.8 -50.3 C 390.2 90.7 330 32 256 32 z M 365.1 209.4 l -0.2 0.5 c -0.3 0.6 -0.6 1.3 -0.9 1.9 l -1 2.1 L 256 441.3 L 148.9 213.9 l -0.9 -2 c -0.3 -0.6 -0.6 -1.2 -0.8 -1.8 c -5.9 -14.5 -9.1 -30.6 -9.1 -45.4 c 0 -65 52.9 -116.5 118 -116.5 s 118 51.4 118 116.5 C 374 179.9 371 194.9 365.1 209.4 z" stroke-linecap="round" />
</g>
<g transform="matrix(0.39 0 0 0.39 200 162.5)" id="Layer_1"  >
<path style="stroke: none; stroke-width: 1; stroke-dasharray: none; stroke-linecap: butt; stroke-dashoffset: 0; stroke-linejoin: miter; stroke-miterlimit: 4; fill: rgb(255,255,255); fill-rule: nonzero; opacity: 1;"  transform=" translate(-256, -160)" d="M 256 96 c -35.3 0 -64 28.7 -64 64 s 28.7 64 64 64 s 64 -28.7 64 -64 S 291.3 96 256 96 z M 256 206.9 c -25.9 0 -46.9 -21 -46.9 -46.9 c 0 -25.9 21 -46.9 46.9 -46.9 c 25.9 0 46.9 21 46.9 46.9 C 302.9 185.9 281.9 206.9 256 206.9 z" stroke-linecap="round" />
</g>
</svg>